<svg width="72" height="72" viewBox="0 0 72 72" fill="none" xmlns="http://www.w3.org/2000/svg">
<path d="M66.8572 36C66.8572 18.958 53.042 5.14282 36 5.14282C18.9581 5.14282 5.14288 18.958 5.14288 36C5.14288 53.0419 18.9581 66.8571 36 66.8571C53.042 66.8571 66.8572 53.0419 66.8572 36Z" fill="#FEE4E2"/>
<path d="M66.8572 36C66.8572 18.958 53.042 5.14282 36 5.14282C18.9581 5.14282 5.14288 18.958 5.14288 36C5.14288 53.0419 18.9581 66.8571 36 66.8571C53.042 66.8571 66.8572 53.0419 66.8572 36Z" stroke="#FEF3F2" stroke-width="8"/>
<path d="M41.1429 28.2857V27.2571C41.1429 25.817 41.1429 25.0968 40.8626 24.5468C40.6161 24.063 40.2227 23.6696 39.7389 23.4231C39.1888 23.1428 38.4687 23.1428 37.0286 23.1428H34.9714C33.5313 23.1428 32.8112 23.1428 32.2612 23.4231C31.7773 23.6696 31.3839 24.063 31.1374 24.5468C30.8572 25.0968 30.8572 25.817 30.8572 27.2571V28.2857M33.4286 35.3571V41.7857M38.5714 35.3571V41.7857M24.4286 28.2857H47.5714M45 28.2857V42.6857C45 44.8459 45 45.9259 44.5796 46.7511C44.2098 47.4769 43.6198 48.0669 42.894 48.4367C42.0688 48.8571 40.9888 48.8571 38.8286 48.8571H33.1714C31.0112 48.8571 29.9312 48.8571 29.106 48.4367C28.3802 48.0669 27.7902 47.4769 27.4204 46.7511C27 45.9259 27 44.8459 27 42.6857V28.2857" stroke="#D92D20" stroke-linecap="round" stroke-linejoin="round"/>
</svg>
