<!-- <svg width="20" height="20" viewBox="0 0 20 20" fill="none" xmlns="http://www.w3.org/2000/svg">
<g clip-path="url(#clip0_70_4)">
<path d="M10.7835 3.88889C10.7839 3.96201 10.7699 4.03449 10.7423 4.10217C10.7146 4.16986 10.6739 4.23142 10.6224 4.28334L4.90572 10L10.6224 15.7167C10.7134 15.8229 10.761 15.9597 10.7556 16.0995C10.7502 16.2393 10.6922 16.3719 10.5933 16.4709C10.4943 16.5698 10.3617 16.6278 10.2219 16.6332C10.082 16.6386 9.94533 16.591 9.83905 16.5L3.3335 10L9.83905 3.49445C9.91704 3.418 10.0158 3.36623 10.1231 3.34562C10.2303 3.32501 10.3413 3.33646 10.442 3.37855C10.5428 3.42064 10.629 3.49149 10.6897 3.58226C10.7504 3.67303 10.783 3.77968 10.7835 3.88889Z" fill="#535053"/>
<path d="M16.8943 3.88889C16.8948 3.96201 16.8807 4.03449 16.8531 4.10217C16.8255 4.16986 16.7847 4.23142 16.7332 4.28334L11.0166 10L16.7332 15.7167C16.8242 15.8229 16.8718 15.9597 16.8664 16.0995C16.861 16.2393 16.803 16.3719 16.7041 16.4709C16.6052 16.5698 16.4725 16.6278 16.3327 16.6332C16.1929 16.6386 16.0562 16.591 15.9499 16.5L9.44434 10L15.9499 3.49445C16.0279 3.418 16.1267 3.36623 16.2339 3.34562C16.3412 3.32501 16.4521 3.33646 16.5529 3.37855C16.6537 3.42064 16.7398 3.49149 16.8005 3.58226C16.8613 3.67303 16.8939 3.77968 16.8943 3.88889Z" fill="#535053"/>
</g>
<defs>
<clipPath id="clip0_70_4">
<rect width="20" height="20" fill="white" transform="matrix(0 -1 1 0 0 20)"/>
</clipPath>
</defs>
</svg> -->
<svg width="24" height="24" viewBox="0 0 24 24" fill="none" xmlns="http://www.w3.org/2000/svg">
<path d="M12.75 17.25L7.5 12L12.75 6.75M17.25 17.25L12 12L17.25 6.75" stroke="#535053"/>
</svg>
