<svg width="34" height="34" viewBox="0 0 34 34" fill="none" xmlns="http://www.w3.org/2000/svg">
<path d="M12.5806 22.5127L21.1766 14.3415L21.5495 20.0026C21.5672 20.2676 21.6894 20.5146 21.8892 20.6895C22.0891 20.8644 22.3502 20.9527 22.6152 20.935C22.8801 20.9173 23.1272 20.7951 23.3021 20.5953C23.4769 20.3954 23.5652 20.1343 23.5476 19.8693L23.0377 12.0757C23.03 12.0178 23.0172 11.9607 22.9996 11.905C22.9651 11.8688 22.9445 11.847 22.9607 11.7625C22.9146 11.6482 22.8477 11.5434 22.7634 11.4534C22.6778 11.3647 22.5765 11.2926 22.4647 11.2407C22.4302 11.2045 22.4096 11.1827 22.3244 11.1947C22.2697 11.1742 22.2133 11.1586 22.1558 11.148L14.398 10.2441C14.2521 10.2271 14.1042 10.2424 13.9649 10.289C13.8256 10.3356 13.6982 10.4123 13.5919 10.5137C13.4223 10.6743 13.3142 10.8893 13.2865 11.1213C13.271 11.2519 13.2813 11.3843 13.317 11.5109C13.3527 11.6375 13.413 11.7558 13.4945 11.8591C13.576 11.9623 13.6771 12.0485 13.7919 12.1126C13.9067 12.1768 14.0331 12.2176 14.1637 12.2328L19.7986 12.892L11.2026 21.0631C11.0104 21.2459 10.8986 21.4975 10.8919 21.7626C10.8852 22.0277 10.9841 22.2847 11.1668 22.4769C11.3495 22.6691 11.6011 22.7809 11.8663 22.7876C12.1314 22.7943 12.3883 22.6955 12.5806 22.5127Z" fill="#D72F59"/>
</svg>
