<svg width="21" height="21" viewBox="0 0 21 21" fill="none" xmlns="http://www.w3.org/2000/svg">
<path d="M7.26523 2.57763C7.06632 2.57884 6.87604 2.65902 6.73624 2.80053C6.59645 2.94204 6.5186 3.13328 6.51981 3.33219C6.52102 3.5311 6.6012 3.72138 6.74271 3.86117C6.88421 4.00096 7.07546 4.07882 7.27437 4.0776L13.5242 4.03952C14.0547 4.03629 14.5647 4.2439 14.942 4.61668C15.3194 4.98946 15.5332 5.49687 15.5364 6.0273L15.5851 14.0271C15.5884 14.5576 15.3808 15.0676 15.008 15.4449C14.6352 15.8223 14.1278 16.0361 13.5974 16.0393L7.34749 16.0774C7.14858 16.0786 6.9583 16.1588 6.8185 16.3003C6.67871 16.4418 6.60086 16.633 6.60207 16.8319C6.60328 17.0308 6.68346 17.2211 6.82497 17.3609C6.96647 17.5007 7.15772 17.5786 7.35663 17.5774L13.6065 17.5393C14.5348 17.5336 15.4227 17.1594 16.0751 16.4991C16.7275 15.8387 17.0908 14.9462 17.0851 14.018L17.0364 6.01816C17.0307 5.08992 16.6565 4.20194 15.9962 3.54958C15.3358 2.89721 14.4434 2.53389 13.5151 2.53955L7.26523 2.57763ZM6.3431 13.8845C6.27116 13.9518 6.18667 14.0042 6.09445 14.0389C6.00222 14.0735 5.90408 14.0896 5.80562 14.0863C5.70717 14.083 5.61033 14.0604 5.52063 14.0196C5.43094 13.9789 5.35014 13.9209 5.28287 13.8489L2.26312 10.6173C2.13423 10.4795 2.06201 10.2982 2.06086 10.1095C2.05971 9.92081 2.12971 9.73863 2.25692 9.59928L5.23706 6.33106C5.3713 6.18424 5.55836 6.09675 5.7571 6.08785C5.95583 6.07895 6.14997 6.14937 6.29679 6.2836C6.44361 6.41784 6.5311 6.6049 6.54 6.80364C6.5489 7.00238 6.47848 7.19651 6.34425 7.34333L4.51841 9.3455L12.3063 9.29804C12.5052 9.29683 12.6964 9.37468 12.8379 9.51447C12.9794 9.65427 13.0596 9.84455 13.0608 10.0435C13.062 10.2424 12.9842 10.4336 12.8444 10.5751C12.7046 10.7166 12.5143 10.7968 12.3154 10.798L4.52855 10.8455L6.37865 12.8252C6.44595 12.8972 6.49841 12.9817 6.53305 13.0739C6.56769 13.1661 6.58381 13.2642 6.58051 13.3627C6.57721 13.4612 6.55455 13.558 6.51382 13.6477C6.47308 13.7374 6.41507 13.8172 6.3431 13.8845Z" fill="#535053"/>
</svg>
