<svg width="24" height="24" viewBox="0 0 24 24" fill="none" xmlns="http://www.w3.org/2000/svg">
<path d="M3.75 9.89404C3.75 9.231 4.01339 8.59512 4.48223 8.12628C4.95107 7.65744 5.58696 7.39404 6.25 7.39404H17.75C18.413 7.39404 19.0489 7.65744 19.5178 8.12628C19.9866 8.59512 20.25 9.231 20.25 9.89404V17.5C20.25 18.1631 19.9866 18.799 19.5178 19.2678C19.0489 19.7367 18.413 20 17.75 20H6.25C5.58696 20 4.95107 19.7367 4.48223 19.2678C4.01339 18.799 3.75 18.1631 3.75 17.5V9.89404Z" stroke="#535053" stroke-width="1.5" stroke-linecap="round" stroke-linejoin="round"/>
<path d="M17.75 7.394H6.25C5.58696 7.394 4.95107 7.65739 4.48223 8.12623C4.01339 8.59507 3.75 9.23096 3.75 9.894V10.197C3.75 10.9926 4.06607 11.7557 4.62868 12.3183C5.19129 12.8809 5.95435 13.197 6.75 13.197H17.25C18.0456 13.197 18.8087 12.8809 19.3713 12.3183C19.9339 11.7557 20.25 10.9926 20.25 10.197V9.894C20.25 9.23096 19.9866 8.59507 19.5178 8.12623C19.0489 7.65739 18.413 7.394 17.75 7.394ZM8.603 5.5C8.603 5.10218 8.76104 4.72064 9.04234 4.43934C9.32364 4.15804 9.70517 4 10.103 4H13.897C14.2948 4 14.6764 4.15804 14.9577 4.43934C15.239 4.72064 15.397 5.10218 15.397 5.5V7.394H8.603V5.5Z" stroke="#535053" stroke-width="1.5" stroke-linecap="round" stroke-linejoin="round"/>
</svg>
