<svg width="24" height="24" viewBox="0 0 24 24" fill="none" xmlns="http://www.w3.org/2000/svg">
<path d="M4 4C4 3.46957 4.21071 2.96086 4.58579 2.58579C4.96086 2.21071 5.46957 2 6 2H14C14.2652 2.00006 14.5195 2.10545 14.707 2.293L19.707 7.293C19.8946 7.48049 19.9999 7.73481 20 8V20C20 20.5304 19.7893 21.0391 19.4142 21.4142C19.0391 21.7893 18.5304 22 18 22H6C5.46957 22 4.96086 21.7893 4.58579 21.4142C4.21071 21.0391 4 20.5304 4 20V4ZM17.586 8L14 4.414V8H17.586ZM12 4H6V20H18V10H13C12.7348 10 12.4804 9.89464 12.2929 9.70711C12.1054 9.51957 12 9.26522 12 9V4ZM15.707 12.293C15.8945 12.4805 15.9998 12.7348 15.9998 13C15.9998 13.2652 15.8945 13.5195 15.707 13.707L11.707 17.707C11.5195 17.8945 11.2652 17.9998 11 17.9998C10.7348 17.9998 10.4805 17.8945 10.293 17.707L8.293 15.707C8.19749 15.6148 8.12131 15.5044 8.0689 15.3824C8.01649 15.2604 7.9889 15.1292 7.98775 14.9964C7.9866 14.8636 8.0119 14.7319 8.06218 14.609C8.11246 14.4861 8.18671 14.3745 8.28061 14.2806C8.3745 14.1867 8.48615 14.1125 8.60905 14.0622C8.73194 14.0119 8.86362 13.9866 8.9964 13.9877C9.12918 13.9889 9.2604 14.0165 9.3824 14.0689C9.50441 14.1213 9.61475 14.1975 9.707 14.293L11 15.586L14.293 12.293C14.4805 12.1055 14.7348 12.0002 15 12.0002C15.2652 12.0002 15.5195 12.1055 15.707 12.293Z" fill="#535053"/>
</svg>
