<svg width="24" height="24" viewBox="0 0 24 24" fill="none" xmlns="http://www.w3.org/2000/svg">
<path d="M16.5 20.3849L14.5575 18.4424L13.5 19.4999L16.5 22.4999L22.5 16.4999L21.4425 15.4424L16.5 20.3849Z" fill="#535053"/>
<path d="M11.25 21.0001H6V3.0001H12V7.5001C12.0012 7.89756 12.1596 8.2784 12.4407 8.55945C12.7217 8.8405 13.1025 8.99891 13.5 9.0001H18V13.5001H19.5V7.5001C19.5026 7.40153 19.4839 7.30356 19.4451 7.21293C19.4062 7.1223 19.3482 7.04116 19.275 6.9751L14.025 1.7251C13.9593 1.6515 13.8782 1.59321 13.7875 1.55433C13.6968 1.51546 13.5986 1.49695 13.5 1.5001H6C5.60254 1.50129 5.2217 1.6597 4.94065 1.94075C4.6596 2.2218 4.50119 2.60264 4.5 3.0001V21.0001C4.50119 21.3976 4.6596 21.7784 4.94065 22.0595C5.2217 22.3405 5.60254 22.4989 6 22.5001H11.25V21.0001ZM13.5 3.3001L17.7 7.5001H13.5V3.3001Z" fill="#535053"/>
</svg>
