<svg width="20" height="20" viewBox="0 0 20 20" fill="none" xmlns="http://www.w3.org/2000/svg">
<path d="M10.8334 9.99992C10.8334 9.53968 10.4603 9.16659 10 9.16659C9.53978 9.16659 9.16669 9.53968 9.16669 9.99992C9.16669 10.4602 9.53978 10.8333 10 10.8333C10.4603 10.8333 10.8334 10.4602 10.8334 9.99992Z" stroke="#535053" stroke-width="1.75" stroke-linecap="round" stroke-linejoin="round"/>
<path d="M10.8334 4.99992C10.8334 4.53968 10.4603 4.16659 10 4.16659C9.53978 4.16659 9.16669 4.53968 9.16669 4.99992C9.16669 5.46016 9.53978 5.83325 10 5.83325C10.4603 5.83325 10.8334 5.46016 10.8334 4.99992Z" stroke="#535053" stroke-width="1.75" stroke-linecap="round" stroke-linejoin="round"/>
<path d="M10.8334 14.9999C10.8334 14.5397 10.4603 14.1666 10 14.1666C9.53978 14.1666 9.16669 14.5397 9.16669 14.9999C9.16669 15.4602 9.53978 15.8333 10 15.8333C10.4603 15.8333 10.8334 15.4602 10.8334 14.9999Z" stroke="#535053" stroke-width="1.75" stroke-linecap="round" stroke-linejoin="round"/>
</svg>
