<svg width="24" height="24" viewBox="0 0 24 24" fill="none" xmlns="http://www.w3.org/2000/svg">
<mask id="path-1-inside-1_58_43" fill="white">
<path d="M20 10C20 9.73481 19.8947 9.48046 19.7071 9.29292C19.5196 9.10539 19.2652 9.00003 19 9.00003C18.7348 9.00003 18.4804 9.10539 18.2929 9.29292C18.1054 9.48046 18 9.73481 18 10H20ZM6.00002 10C6.00002 9.73481 5.89466 9.48046 5.70713 9.29292C5.51959 9.10539 5.26524 9.00003 5.00002 9.00003C4.7348 9.00003 4.48045 9.10539 4.29291 9.29292C4.10538 9.48046 4.00002 9.73481 4.00002 10H6.00002ZM20.293 12.707C20.4816 12.8892 20.7342 12.99 20.9964 12.9877C21.2586 12.9854 21.5094 12.8803 21.6948 12.6948C21.8802 12.5094 21.9854 12.2586 21.9877 11.9964C21.99 11.7342 21.8892 11.4816 21.707 11.293L20.293 12.707ZM12 3.00003L12.707 2.29303C12.5195 2.10556 12.2652 2.00024 12 2.00024C11.7349 2.00024 11.4805 2.10556 11.293 2.29303L12 3.00003ZM2.29302 11.293C2.19751 11.3853 2.12133 11.4956 2.06892 11.6176C2.01651 11.7396 1.98892 11.8709 1.98777 12.0036C1.98662 12.1364 2.01192 12.2681 2.0622 12.391C2.11248 12.5139 2.18673 12.6255 2.28063 12.7194C2.37452 12.8133 2.48617 12.8876 2.60907 12.9379C2.73196 12.9881 2.86364 13.0134 2.99642 13.0123C3.1292 13.0111 3.26042 12.9835 3.38242 12.9311C3.50443 12.8787 3.61477 12.8025 3.70702 12.707L2.29302 11.293ZM7.00002 22H17V20H7.00002V22ZM20 19V10H18V19H20ZM6.00002 19V10H4.00002V19H6.00002ZM21.707 11.293L12.707 2.29303L11.293 3.70703L20.293 12.707L21.707 11.293ZM11.293 2.29303L2.29302 11.293L3.70702 12.707L12.707 3.70703L11.293 2.29303ZM17 22C17.7957 22 18.5587 21.684 19.1213 21.1214C19.684 20.5587 20 19.7957 20 19H18C18 19.2652 17.8947 19.5196 17.7071 19.7071C17.5196 19.8947 17.2652 20 17 20V22ZM7.00002 20C6.7348 20 6.48045 19.8947 6.29291 19.7071C6.10538 19.5196 6.00002 19.2652 6.00002 19H4.00002C4.00002 19.7957 4.31609 20.5587 4.8787 21.1214C5.44131 21.684 6.20437 22 7.00002 22V20Z"/>
</mask>
<path d="M20 10C20 9.73481 19.8947 9.48046 19.7071 9.29292C19.5196 9.10539 19.2652 9.00003 19 9.00003C18.7348 9.00003 18.4804 9.10539 18.2929 9.29292C18.1054 9.48046 18 9.73481 18 10H20ZM6.00002 10C6.00002 9.73481 5.89466 9.48046 5.70713 9.29292C5.51959 9.10539 5.26524 9.00003 5.00002 9.00003C4.7348 9.00003 4.48045 9.10539 4.29291 9.29292C4.10538 9.48046 4.00002 9.73481 4.00002 10H6.00002ZM20.293 12.707C20.4816 12.8892 20.7342 12.99 20.9964 12.9877C21.2586 12.9854 21.5094 12.8803 21.6948 12.6948C21.8802 12.5094 21.9854 12.2586 21.9877 11.9964C21.99 11.7342 21.8892 11.4816 21.707 11.293L20.293 12.707ZM12 3.00003L12.707 2.29303C12.5195 2.10556 12.2652 2.00024 12 2.00024C11.7349 2.00024 11.4805 2.10556 11.293 2.29303L12 3.00003ZM2.29302 11.293C2.19751 11.3853 2.12133 11.4956 2.06892 11.6176C2.01651 11.7396 1.98892 11.8709 1.98777 12.0036C1.98662 12.1364 2.01192 12.2681 2.0622 12.391C2.11248 12.5139 2.18673 12.6255 2.28063 12.7194C2.37452 12.8133 2.48617 12.8876 2.60907 12.9379C2.73196 12.9881 2.86364 13.0134 2.99642 13.0123C3.1292 13.0111 3.26042 12.9835 3.38242 12.9311C3.50443 12.8787 3.61477 12.8025 3.70702 12.707L2.29302 11.293ZM7.00002 22H17V20H7.00002V22ZM20 19V10H18V19H20ZM6.00002 19V10H4.00002V19H6.00002ZM21.707 11.293L12.707 2.29303L11.293 3.70703L20.293 12.707L21.707 11.293ZM11.293 2.29303L2.29302 11.293L3.70702 12.707L12.707 3.70703L11.293 2.29303ZM17 22C17.7957 22 18.5587 21.684 19.1213 21.1214C19.684 20.5587 20 19.7957 20 19H18C18 19.2652 17.8947 19.5196 17.7071 19.7071C17.5196 19.8947 17.2652 20 17 20V22ZM7.00002 20C6.7348 20 6.48045 19.8947 6.29291 19.7071C6.10538 19.5196 6.00002 19.2652 6.00002 19H4.00002C4.00002 19.7957 4.31609 20.5587 4.8787 21.1214C5.44131 21.684 6.20437 22 7.00002 22V20Z" fill="white"/>
<path d="M18 10.5H20V9.50003H18V10.5ZM4.00002 10.5H6.00002V9.50003H4.00002V10.5ZM21.3535 10.9395L19.9395 12.3535L20.6466 13.0606L22.0606 11.6466L21.3535 10.9395ZM4.06057 12.3535L2.64657 10.9395L1.93947 11.6466L3.35347 13.0606L4.06057 12.3535ZM17.5 22V20H16.5V22H17.5ZM6.50002 20V22H7.50002V20H6.50002ZM18 19.5H20V18.5H18V19.5ZM4.00002 19.5H6.00002V18.5H4.00002V19.5ZM4.00002 10H3.00002H4.00002ZM20.293 12.707L19.5859 13.4141L19.5921 13.4203L19.5983 13.4263L20.293 12.707ZM21.707 11.293L22.4263 10.5983L22.4203 10.5921L22.4141 10.5859L21.707 11.293ZM12 3.00003L11.2929 3.70714L12 4.41424L12.7071 3.70714L12 3.00003ZM12.707 2.29303L13.4141 1.58592L13.414 1.58582L12.707 2.29303ZM11.293 2.29303L10.586 1.58582L10.5859 1.58592L11.293 2.29303ZM2.29302 11.293L2.98773 12.0123L2.99398 12.0063L3.00013 12.0001L2.29302 11.293ZM3.70702 12.707L2.99991 11.9999L2.99377 12.0061L2.98773 12.0123L3.70702 12.707ZM7.00002 22V23V22ZM17 22L17 23L17 22ZM20 19H21H20ZM11.293 3.70703L10.5859 2.99992L9.87881 3.70703L10.5859 4.41414L11.293 3.70703ZM12.707 3.70703L13.4141 4.41414L14.1212 3.70703L13.4141 2.99992L12.707 3.70703ZM21 10C21 9.4696 20.7893 8.96089 20.4142 8.58582L19 10L19 10H21ZM20.4142 8.58582C20.0392 8.21074 19.5305 8.00003 19 8.00003V10L19 10L20.4142 8.58582ZM19 8.00003C18.4696 8.00003 17.9609 8.21074 17.5858 8.58582L19 10L19 10V8.00003ZM17.5858 8.58582C17.2107 8.96089 17 9.4696 17 10H19L19 10L17.5858 8.58582ZM7.00002 10C7.00002 9.4696 6.78931 8.96089 6.41423 8.58582L5.00002 10L5.00002 10H7.00002ZM6.41423 8.58582C6.03916 8.21074 5.53045 8.00003 5.00002 8.00003V10L5.00002 10L6.41423 8.58582ZM5.00002 8.00003C4.46959 8.00003 3.96088 8.21074 3.58581 8.58582L5.00002 10L5.00002 10V8.00003ZM3.58581 8.58582C3.21073 8.96089 3.00002 9.4696 3.00002 10L5.00002 10L5.00002 10L3.58581 8.58582ZM19.5983 13.4263C19.9755 13.7906 20.4807 13.9922 21.0051 13.9877L20.9877 11.9877L20.9877 11.9877L19.5983 13.4263ZM21.0051 13.9877C21.5295 13.9831 22.0311 13.7728 22.4019 13.402L20.9877 11.9877L20.9877 11.9877L21.0051 13.9877ZM22.4019 13.402C22.7728 13.0311 22.9831 12.5295 22.9877 12.0051L20.9877 11.9877L20.9877 11.9877L22.4019 13.402ZM22.9877 12.0051C22.9922 11.4807 22.7906 10.9755 22.4263 10.5983L20.9877 11.9877L20.9877 11.9877L22.9877 12.0051ZM12.7071 3.70714L13.4141 3.00014L11.9999 1.58592L11.2929 2.29292L12.7071 3.70714ZM13.414 1.58582C13.039 1.21087 12.5303 1.00024 12 1.00024V3.00024L12 3.00024L13.414 1.58582ZM12 1.00024C11.4697 1.00024 10.9611 1.21087 10.586 1.58582L12 3.00024L12 3.00024V1.00024ZM10.5859 3.00014L11.2929 3.70714L12.7071 2.29292L12.0001 1.58592L10.5859 3.00014ZM1.59831 10.5737C1.40729 10.7582 1.25492 10.9789 1.15011 11.2229L2.98773 12.0123L2.98773 12.0123L1.59831 10.5737ZM1.15011 11.2229C1.04529 11.4669 0.990115 11.7294 0.987807 11.9949L2.98773 12.0123L2.98773 12.0123L1.15011 11.2229ZM0.987807 11.9949C0.9855 12.2605 1.0361 12.5239 1.13667 12.7697L2.98773 12.0123L2.98773 12.0123L0.987807 11.9949ZM1.13667 12.7697C1.23723 13.0154 1.38573 13.2387 1.57352 13.4265L2.98773 12.0123L2.98773 12.0123L1.13667 12.7697ZM1.57352 13.4265C1.7613 13.6143 1.98461 13.7628 2.2304 13.8634L2.98773 12.0123L2.98773 12.0123L1.57352 13.4265ZM2.2304 13.8634C2.47619 13.9639 2.73955 14.0146 3.00511 14.0122L2.98773 12.0123L2.98773 12.0123L2.2304 13.8634ZM3.00511 14.0122C3.27067 14.0099 3.53311 13.9548 3.77712 13.8499L2.98773 12.0123L2.98773 12.0123L3.00511 14.0122ZM3.77712 13.8499C4.02113 13.7451 4.24182 13.5928 4.42631 13.4017L2.98773 12.0123L2.98773 12.0123L3.77712 13.8499ZM7.00002 23H17V21H7.00002V23ZM17 19H7.00002V21H17V19ZM21 19V10H19V19H21ZM17 10V19H19V10H17ZM7.00002 19V10H5.00002V19H7.00002ZM3.00002 10V19H5.00002V10H3.00002ZM22.4141 10.5859L13.4141 1.58592L11.9999 3.00014L20.9999 12.0001L22.4141 10.5859ZM11.9999 1.58592L10.5859 2.99992L12.0001 4.41414L13.4141 3.00014L11.9999 1.58592ZM10.5859 4.41414L19.5859 13.4141L21.0001 11.9999L12.0001 2.99992L10.5859 4.41414ZM10.5859 1.58592L1.58591 10.5859L3.00013 12.0001L12.0001 3.00014L10.5859 1.58592ZM4.41413 13.4141L13.4141 4.41414L11.9999 2.99992L2.99991 11.9999L4.41413 13.4141ZM13.4141 2.99992L12.0001 1.58592L10.5859 3.00014L11.9999 4.41414L13.4141 2.99992ZM17 23C18.0609 23 19.0783 22.5786 19.8284 21.8285L18.4142 20.4142C18.0392 20.7893 17.5305 21 17 21L17 23ZM19.8284 21.8285C20.5786 21.0783 21 20.0609 21 19L19 19C19 19.5305 18.7893 20.0392 18.4142 20.4142L19.8284 21.8285ZM17 19L17 19L18.4142 20.4142C18.7893 20.0392 19 19.5305 19 19H17ZM17 19L17 19V21C17.5305 21 18.0392 20.7893 18.4142 20.4142L17 19ZM7.00002 19L7.00002 19L5.58581 20.4142C5.96088 20.7893 6.46959 21 7.00002 21V19ZM7.00002 19L7.00002 19H5.00002C5.00002 19.5305 5.21073 20.0392 5.58581 20.4142L7.00002 19ZM3.00002 19C3.00002 20.0609 3.42145 21.0783 4.17159 21.8285L5.58581 20.4142C5.21073 20.0392 5.00002 19.5305 5.00002 19H3.00002ZM4.17159 21.8285C4.92174 22.5786 5.93915 23 7.00002 23L7.00002 21C6.46959 21 5.96088 20.7893 5.58581 20.4142L4.17159 21.8285Z" fill="white" mask="url(#path-1-inside-1_58_43)"/>
</svg>
