<svg width="24" height="24" viewBox="0 0 24 24" fill="none" xmlns="http://www.w3.org/2000/svg">
<mask id="path-1-inside-1_44_23" fill="white">
<path d="M20.0001 10C20.0001 9.73481 19.8947 9.48046 19.7072 9.29292C19.5197 9.10539 19.2653 9.00003 19.0001 9.00003C18.7349 9.00003 18.4805 9.10539 18.293 9.29292C18.1054 9.48046 18.0001 9.73481 18.0001 10H20.0001ZM6.00008 10C6.00008 9.73481 5.89472 9.48046 5.70719 9.29292C5.51965 9.10539 5.2653 9.00003 5.00008 9.00003C4.73486 9.00003 4.48051 9.10539 4.29297 9.29292C4.10544 9.48046 4.00008 9.73481 4.00008 10H6.00008ZM20.2931 12.707C20.4817 12.8892 20.7343 12.99 20.9965 12.9877C21.2587 12.9854 21.5095 12.8803 21.6949 12.6948C21.8803 12.5094 21.9855 12.2586 21.9878 11.9964C21.99 11.7342 21.8892 11.4816 21.7071 11.293L20.2931 12.707ZM12.0001 3.00003L12.7071 2.29303C12.5196 2.10556 12.2652 2.00024 12.0001 2.00024C11.7349 2.00024 11.4806 2.10556 11.2931 2.29303L12.0001 3.00003ZM2.29308 11.293C2.19757 11.3853 2.12139 11.4956 2.06898 11.6176C2.01657 11.7396 1.98898 11.8709 1.98783 12.0036C1.98668 12.1364 2.01198 12.2681 2.06226 12.391C2.11254 12.5139 2.18679 12.6255 2.28069 12.7194C2.37458 12.8133 2.48623 12.8876 2.60913 12.9379C2.73202 12.9881 2.8637 13.0134 2.99648 13.0123C3.12926 13.0111 3.26048 12.9835 3.38249 12.9311C3.50449 12.8787 3.61483 12.8025 3.70708 12.707L2.29308 11.293ZM7.00008 22H17.0001V20H7.00008V22ZM20.0001 19V10H18.0001V19H20.0001ZM6.00008 19V10H4.00008V19H6.00008ZM21.7071 11.293L12.7071 2.29303L11.2931 3.70703L20.2931 12.707L21.7071 11.293ZM11.2931 2.29303L2.29308 11.293L3.70708 12.707L12.7071 3.70703L11.2931 2.29303ZM17.0001 22C17.7957 22 18.5588 21.684 19.1214 21.1214C19.684 20.5587 20.0001 19.7957 20.0001 19H18.0001C18.0001 19.2652 17.8947 19.5196 17.7072 19.7071C17.5197 19.8947 17.2653 20 17.0001 20V22ZM7.00008 20C6.73486 20 6.48051 19.8947 6.29297 19.7071C6.10544 19.5196 6.00008 19.2652 6.00008 19H4.00008C4.00008 19.7957 4.31615 20.5587 4.87876 21.1214C5.44137 21.684 6.20443 22 7.00008 22V20Z"/>
</mask>
<path d="M20.0001 10C20.0001 9.73481 19.8947 9.48046 19.7072 9.29292C19.5197 9.10539 19.2653 9.00003 19.0001 9.00003C18.7349 9.00003 18.4805 9.10539 18.293 9.29292C18.1054 9.48046 18.0001 9.73481 18.0001 10H20.0001ZM6.00008 10C6.00008 9.73481 5.89472 9.48046 5.70719 9.29292C5.51965 9.10539 5.2653 9.00003 5.00008 9.00003C4.73486 9.00003 4.48051 9.10539 4.29297 9.29292C4.10544 9.48046 4.00008 9.73481 4.00008 10H6.00008ZM20.2931 12.707C20.4817 12.8892 20.7343 12.99 20.9965 12.9877C21.2587 12.9854 21.5095 12.8803 21.6949 12.6948C21.8803 12.5094 21.9855 12.2586 21.9878 11.9964C21.99 11.7342 21.8892 11.4816 21.7071 11.293L20.2931 12.707ZM12.0001 3.00003L12.7071 2.29303C12.5196 2.10556 12.2652 2.00024 12.0001 2.00024C11.7349 2.00024 11.4806 2.10556 11.2931 2.29303L12.0001 3.00003ZM2.29308 11.293C2.19757 11.3853 2.12139 11.4956 2.06898 11.6176C2.01657 11.7396 1.98898 11.8709 1.98783 12.0036C1.98668 12.1364 2.01198 12.2681 2.06226 12.391C2.11254 12.5139 2.18679 12.6255 2.28069 12.7194C2.37458 12.8133 2.48623 12.8876 2.60913 12.9379C2.73202 12.9881 2.8637 13.0134 2.99648 13.0123C3.12926 13.0111 3.26048 12.9835 3.38249 12.9311C3.50449 12.8787 3.61483 12.8025 3.70708 12.707L2.29308 11.293ZM7.00008 22H17.0001V20H7.00008V22ZM20.0001 19V10H18.0001V19H20.0001ZM6.00008 19V10H4.00008V19H6.00008ZM21.7071 11.293L12.7071 2.29303L11.2931 3.70703L20.2931 12.707L21.7071 11.293ZM11.2931 2.29303L2.29308 11.293L3.70708 12.707L12.7071 3.70703L11.2931 2.29303ZM17.0001 22C17.7957 22 18.5588 21.684 19.1214 21.1214C19.684 20.5587 20.0001 19.7957 20.0001 19H18.0001C18.0001 19.2652 17.8947 19.5196 17.7072 19.7071C17.5197 19.8947 17.2653 20 17.0001 20V22ZM7.00008 20C6.73486 20 6.48051 19.8947 6.29297 19.7071C6.10544 19.5196 6.00008 19.2652 6.00008 19H4.00008C4.00008 19.7957 4.31615 20.5587 4.87876 21.1214C5.44137 21.684 6.20443 22 7.00008 22V20Z" fill="black"/>
<path d="M18.0001 10.5H20.0001V9.50003H18.0001V10.5ZM4.00008 10.5H6.00008V9.50003H4.00008V10.5ZM21.3535 10.9395L19.9395 12.3535L20.6466 13.0606L22.0606 11.6466L21.3535 10.9395ZM4.06063 12.3535L2.64663 10.9395L1.93953 11.6466L3.35353 13.0606L4.06063 12.3535ZM17.5001 22V20H16.5001V22H17.5001ZM6.50008 20V22H7.50008V20H6.50008ZM18.0001 19.5H20.0001V18.5H18.0001V19.5ZM4.00008 19.5H6.00008V18.5H4.00008V19.5ZM4.00008 10H3.00008H4.00008ZM20.2931 12.707L19.586 13.4141L19.5921 13.4203L19.5984 13.4263L20.2931 12.707ZM21.7071 11.293L22.4264 10.5983L22.4203 10.5921L22.4142 10.5859L21.7071 11.293ZM12.0001 3.00003L11.293 3.70714L12.0001 4.41424L12.7072 3.70714L12.0001 3.00003ZM12.7071 2.29303L13.4142 1.58592L13.4141 1.58582L12.7071 2.29303ZM11.2931 2.29303L10.5861 1.58582L10.586 1.58592L11.2931 2.29303ZM2.29308 11.293L2.98779 12.0123L2.99404 12.0063L3.00019 12.0001L2.29308 11.293ZM3.70708 12.707L2.99997 11.9999L2.99383 12.0061L2.98779 12.0123L3.70708 12.707ZM7.00008 22V23V22ZM17.0001 22L17.0001 23L17.0001 22ZM20.0001 19H21.0001H20.0001ZM11.2931 3.70703L10.586 2.99992L9.87887 3.70703L10.586 4.41414L11.2931 3.70703ZM12.7071 3.70703L13.4142 4.41414L14.1213 3.70703L13.4142 2.99992L12.7071 3.70703ZM21.0001 10C21.0001 9.4696 20.7894 8.96089 20.4143 8.58582L19.0001 10L19.0001 10H21.0001ZM20.4143 8.58582C20.0392 8.21074 19.5305 8.00003 19.0001 8.00003V10L19.0001 10L20.4143 8.58582ZM19.0001 8.00003C18.4696 8.00003 17.9609 8.21074 17.5859 8.58582L19.0001 10L19.0001 10V8.00003ZM17.5859 8.58582C17.2108 8.96089 17.0001 9.4696 17.0001 10H19.0001L19.0001 10L17.5859 8.58582ZM7.00008 10C7.00008 9.4696 6.78937 8.96089 6.41429 8.58582L5.00008 10L5.00008 10H7.00008ZM6.41429 8.58582C6.03922 8.21074 5.53051 8.00003 5.00008 8.00003V10L5.00008 10L6.41429 8.58582ZM5.00008 8.00003C4.46965 8.00003 3.96094 8.21074 3.58587 8.58582L5.00008 10L5.00008 10V8.00003ZM3.58587 8.58582C3.2108 8.96089 3.00008 9.4696 3.00008 10L5.00008 10L5.00008 10L3.58587 8.58582ZM19.5984 13.4263C19.9756 13.7906 20.4808 13.9922 21.0052 13.9877L20.9878 11.9877L20.9878 11.9877L19.5984 13.4263ZM21.0052 13.9877C21.5296 13.9831 22.0312 13.7728 22.402 13.402L20.9878 11.9877L20.9878 11.9877L21.0052 13.9877ZM22.402 13.402C22.7728 13.0311 22.9832 12.5295 22.9877 12.0051L20.9878 11.9877L20.9878 11.9877L22.402 13.402ZM22.9877 12.0051C22.9923 11.4807 22.7907 10.9755 22.4264 10.5983L20.9878 11.9877L20.9878 11.9877L22.9877 12.0051ZM12.7072 3.70714L13.4142 3.00014L12 1.58592L11.293 2.29292L12.7072 3.70714ZM13.4141 1.58582C13.039 1.21087 12.5304 1.00024 12.0001 1.00024V3.00024L12.0001 3.00024L13.4141 1.58582ZM12.0001 1.00024C11.4698 1.00024 10.9611 1.21087 10.5861 1.58582L12.0001 3.00024L12.0001 3.00024V1.00024ZM10.586 3.00014L11.293 3.70714L12.7072 2.29292L12.0002 1.58592L10.586 3.00014ZM1.59837 10.5737C1.40735 10.7582 1.25498 10.9789 1.15017 11.2229L2.98779 12.0123L2.98779 12.0123L1.59837 10.5737ZM1.15017 11.2229C1.04535 11.4669 0.990176 11.7294 0.987868 11.9949L2.98779 12.0123L2.98779 12.0123L1.15017 11.2229ZM0.987868 11.9949C0.985561 12.2605 1.03616 12.5239 1.13673 12.7697L2.98779 12.0123L2.98779 12.0123L0.987868 11.9949ZM1.13673 12.7697C1.23729 13.0154 1.38579 13.2387 1.57358 13.4265L2.98779 12.0123L2.98779 12.0123L1.13673 12.7697ZM1.57358 13.4265C1.76136 13.6143 1.98467 13.7628 2.23046 13.8634L2.98779 12.0123L2.98779 12.0123L1.57358 13.4265ZM2.23046 13.8634C2.47625 13.9639 2.73961 14.0146 3.00517 14.0122L2.98779 12.0123L2.98779 12.0123L2.23046 13.8634ZM3.00517 14.0122C3.27073 14.0099 3.53317 13.9548 3.77718 13.8499L2.98779 12.0123L2.98779 12.0123L3.00517 14.0122ZM3.77718 13.8499C4.02119 13.7451 4.24188 13.5928 4.42637 13.4017L2.98779 12.0123L2.98779 12.0123L3.77718 13.8499ZM7.00008 23H17.0001V21H7.00008V23ZM17.0001 19H7.00008V21H17.0001V19ZM21.0001 19V10H19.0001V19H21.0001ZM17.0001 10V19H19.0001V10H17.0001ZM7.00008 19V10H5.00008V19H7.00008ZM3.00008 10V19H5.00008V10H3.00008ZM22.4142 10.5859L13.4142 1.58592L12 3.00014L21 12.0001L22.4142 10.5859ZM12 1.58592L10.586 2.99992L12.0002 4.41414L13.4142 3.00014L12 1.58592ZM10.586 4.41414L19.586 13.4141L21.0002 11.9999L12.0002 2.99992L10.586 4.41414ZM10.586 1.58592L1.58597 10.5859L3.00019 12.0001L12.0002 3.00014L10.586 1.58592ZM4.41419 13.4141L13.4142 4.41414L12 2.99992L2.99997 11.9999L4.41419 13.4141ZM13.4142 2.99992L12.0002 1.58592L10.586 3.00014L12 4.41414L13.4142 2.99992ZM17.0001 23C18.0609 23 19.0784 22.5786 19.8285 21.8285L18.4143 20.4142C18.0392 20.7893 17.5305 21 17.0001 21L17.0001 23ZM19.8285 21.8285C20.5787 21.0783 21.0001 20.0609 21.0001 19L19.0001 19C19.0001 19.5305 18.7894 20.0392 18.4143 20.4142L19.8285 21.8285ZM17.0001 19L17.0001 19L18.4143 20.4142C18.7894 20.0392 19.0001 19.5305 19.0001 19H17.0001ZM17.0001 19L17.0001 19V21C17.5305 21 18.0392 20.7893 18.4143 20.4142L17.0001 19ZM7.00008 19L7.00008 19L5.58587 20.4142C5.96094 20.7893 6.46965 21 7.00008 21V19ZM7.00008 19L7.00008 19H5.00008C5.00008 19.5305 5.21079 20.0392 5.58587 20.4142L7.00008 19ZM3.00008 19C3.00008 20.0609 3.42151 21.0783 4.17165 21.8285L5.58587 20.4142C5.21079 20.0392 5.00008 19.5305 5.00008 19H3.00008ZM4.17165 21.8285C4.9218 22.5786 5.93922 23 7.00008 23L7.00008 21C6.46965 21 5.96094 20.7893 5.58587 20.4142L4.17165 21.8285Z" fill="#535053" mask="url(#path-1-inside-1_44_23)"/>
</svg>
