<svg width="24" height="24" viewBox="0 0 24 24" fill="none" xmlns="http://www.w3.org/2000/svg">
<path d="M11.7456 21.6263L12.0082 21.8467L12.3309 21.5619L12.5779 21.3439L12.5779 21.3439L12.583 21.3393C13.7529 20.2777 14.8357 19.1238 15.8209 17.8888L15.8212 17.8884C17.8874 15.2925 19.2048 12.6626 19.2947 10.2587L19.2947 10.2582C19.3304 9.27783 19.1681 8.30035 18.8175 7.38411C18.467 6.46788 17.9354 5.6317 17.2544 4.92552C16.5735 4.21935 15.7572 3.65766 14.8543 3.27402C13.9514 2.89038 12.9805 2.69265 11.9995 2.69265C11.0185 2.69265 10.0476 2.89038 9.14468 3.27402C8.24181 3.65766 7.42552 4.21935 6.74458 4.92552C6.06364 5.6317 5.53202 6.46788 5.18147 7.38411C4.83093 8.30035 4.66865 9.27783 4.70433 10.2582L4.70436 10.2589C4.79529 12.6627 6.11367 15.2925 8.17872 17.8883L8.17913 17.8888C9.16429 19.1238 10.2471 20.2777 11.417 21.3393L11.4178 21.34C11.5291 21.4406 11.6171 21.5184 11.6785 21.5699L11.7396 21.6213L11.7389 21.6221L11.7449 21.6271L11.7456 21.6263ZM11.5973 21.7631L11.5908 21.7572L11.5842 21.7516L11.5841 21.7516L11.5841 21.7516L11.5835 21.7511L11.5803 21.7483L11.5662 21.7363C11.5535 21.7255 11.5341 21.7088 11.5086 21.6866C11.4575 21.6422 11.3817 21.5755 11.2847 21.4881C11.0907 21.3132 10.8122 21.0556 10.4773 20.7273C9.807 20.0702 8.914 19.1329 8.02223 18.0124C6.22066 15.7487 4.5 12.8301 4.5 10C4.5 8.01088 5.29018 6.10322 6.6967 4.6967C8.10322 3.29018 10.0109 2.5 12 2.5C13.9891 2.5 15.8968 3.29018 17.3033 4.6967C18.7098 6.10322 19.5 8.01088 19.5 10C19.5 12.8301 17.7793 15.7487 15.9778 18.0124C15.086 19.1329 14.193 20.0702 13.5227 20.7273C13.1878 21.0556 12.9093 21.3132 12.7153 21.4881C12.6183 21.5755 12.5425 21.6422 12.4914 21.6866C12.4659 21.7088 12.4465 21.7255 12.4338 21.7363L12.4197 21.7483L12.4165 21.7511L12.4159 21.7516L12.4159 21.7516L12.4158 21.7516L12.4075 21.7587L12.3993 21.7662C12.1897 21.9592 11.8169 21.9617 11.5973 21.7631ZM12 13.3C12.8752 13.3 13.7146 12.9523 14.3335 12.3335C14.9523 11.7146 15.3 10.8752 15.3 10C15.3 9.12479 14.9523 8.28542 14.3335 7.66655C13.7146 7.04768 12.8752 6.7 12 6.7C11.1248 6.7 10.2854 7.04768 9.66655 7.66655C9.04768 8.28542 8.7 9.12479 8.7 10C8.7 10.8752 9.04768 11.7146 9.66655 12.3335C10.2854 12.9523 11.1248 13.3 12 13.3ZM12 13.5C11.0717 13.5 10.1815 13.1313 9.52513 12.4749C8.86875 11.8185 8.5 10.9283 8.5 10C8.5 9.07174 8.86875 8.1815 9.52513 7.52513C10.1815 6.86875 11.0717 6.5 12 6.5C12.9283 6.5 13.8185 6.86875 14.4749 7.52513C15.1313 8.1815 15.5 9.07174 15.5 10C15.5 10.9283 15.1313 11.8185 14.4749 12.4749C13.8185 13.1313 12.9283 13.5 12 13.5Z" fill="#535053" stroke="#535053"/>
</svg>
