<svg width="24" height="24" viewBox="0 0 24 24" fill="none" xmlns="http://www.w3.org/2000/svg">
<g clip-path="url(#clip0_87_4)">
<path d="M23.9182 10.0636L21.5092 6.46178L22.7081 2.27078C22.7827 2.0079 22.7096 1.72515 22.5153 1.5324C22.3218 1.3389 22.0406 1.2673 21.7762 1.34417L17.5923 2.56592L13.9762 0.130651C13.7486 -0.0223726 13.4568 -0.0407476 13.2153 0.0852524C12.9723 0.209752 12.8163 0.457229 12.8073 0.729854L12.6776 5.08773L9.24408 7.77348C9.02885 7.94185 8.9227 8.21448 8.96583 8.4841C9.00895 8.75373 9.1957 8.97833 9.4537 9.07058L12.6753 10.2256C12.6536 10.2428 12.6307 10.2582 12.6105 10.2785L0.17095 22.718C-0.121925 23.0109 -0.121925 23.4856 0.17095 23.7785C0.317575 23.9251 0.5092 23.9983 0.7012 23.9983C0.8932 23.9983 1.08483 23.9251 1.23145 23.7785L13.671 11.339C13.7193 11.2906 13.7568 11.2359 13.7891 11.1793L15.0498 14.6375C15.0959 14.7635 15.1749 14.8748 15.2786 14.9599C15.3822 15.0451 15.5068 15.1009 15.6393 15.1216C15.6774 15.1275 15.7159 15.1303 15.7545 15.1303C15.869 15.1301 15.982 15.1038 16.0848 15.0533C16.1877 15.0028 16.2776 14.9295 16.3477 14.8389L19.0143 11.3896L23.3245 11.2359C23.5979 11.2265 23.8439 11.069 23.9677 10.8249C24.091 10.5815 24.0719 10.2894 23.9182 10.0636L23.9182 10.0636ZM18.6105 9.90353C18.3878 9.91103 18.18 10.0179 18.0435 10.1942L15.9934 12.845L14.8455 9.69692C14.7694 9.4873 14.6036 9.32342 14.3936 9.24805L11.2391 8.11705L13.8788 6.05305C14.0546 5.91542 14.1593 5.7073 14.1668 5.48455L14.2665 2.1343L17.046 4.0063C17.1374 4.06755 17.2411 4.10808 17.3498 4.12505C17.4585 4.14201 17.5696 4.13501 17.6753 4.10453L20.892 3.1648L19.9699 6.3868C19.9399 6.49274 19.9334 6.60398 19.951 6.71269C19.9685 6.8214 20.0097 6.92494 20.0715 7.01605L21.9597 9.78467L18.6105 9.90353Z" fill="#535053"/>
</g>
<defs>
<clipPath id="clip0_87_4">
<rect width="24" height="24" fill="white"/>
</clipPath>
</defs>
</svg>
